<svg xmlns="http://www.w3.org/2000/svg" version="1.1" xmlns:xlink="http://www.w3.org/1999/xlink" width="1000" height="1000"><g clip-path="url(#SvgjsClipPath1078)"><rect width="1000" height="1000" fill="#ffffff"></rect><g transform="matrix(1.1824324324324325,0,0,1.1824324324324325,225.08445945945948,150)"><svg xmlns="http://www.w3.org/2000/svg" version="1.1" xmlns:xlink="http://www.w3.org/1999/xlink" width="465" height="592"><svg width="465" height="592" viewBox="0 0 465 592" fill="none" xmlns="http://www.w3.org/2000/svg">
<path d="M233.998 408.5C161.998 342.5 50.3312 327.334 3.4979 328C-16.5003 419 66 592 229.998 592C406.501 592 478 424 462.998 328C346 328 233.998 408.5 233.998 408.5Z" fill="#17552A"></path>
<path d="M464.375 369.187C464.188 371.74 463.953 374.315 463.671 376.908C463.614 376.938 463.556 376.97 463.499 377C362.577 430.199 299.975 537.146 279.803 587.2C264.238 590.319 247.643 592 229.998 592C225.958 592 221.966 591.893 218.025 591.687C273.172 456.28 404.471 387.151 464.375 369.187Z" fill="#539A37"></path>
<path d="M464.89 350.003C464.923 351.495 464.937 352.998 464.935 354.511C304.972 382.137 205.662 519.675 175.999 585L175.752 585.287C157.775 580.684 141.095 573.867 125.753 565.33C135.045 551.344 154.239 526.28 189.499 484C275.843 380.468 408.992 351.538 464.89 350.003Z" fill="#539A37"></path>
<path d="M459.731 401.199C446.279 463.858 406.493 531.703 337.477 567.176C337.484 567.117 337.491 567.059 337.499 567C344.254 517.333 421.296 436.256 459.731 401.199Z" fill="#539A37"></path>
<path d="M5.35351 399.1C37.3509 402.851 112.256 422.343 162.999 471.5L136.999 502.5C113.586 480.713 56.6731 435.387 12.3105 424.271C9.4886 415.816 7.16624 407.394 5.35351 399.1Z" fill="#539A37"></path>
<path d="M0.630854 351.993C45.6498 351.461 150.095 364.976 212.999 423.5L182.999 450.5C154.641 426.454 78.7609 377.195 1.16601 371.582C0.609973 364.861 0.429891 358.312 0.630854 351.993Z" fill="#539A37"></path>
<path d="M179.5 68.5015C224 16 296.833 9.00146 339.5 0.501465C339.5 0.501465 344.999 11 346.499 46.5015C350.362 137.932 288.499 189.5 246.499 197.501C232.832 199.501 203.899 205.2 197.499 212C191.099 218.8 181.833 205.168 178 197.501C149.499 152.501 151.981 100.968 179.5 68.5015Z" fill="#539A37"></path>
<path fill-rule="evenodd" clip-rule="evenodd" d="M297.5 58C230.5 110 202.5 151.5 198 198V360.5L178.5 351V303L100.249 226.729C96.1174 228.82 91.4469 230 86.5 230C69.6553 230 56 216.345 56 199.5C56 182.655 69.6553 169 86.5 169C103.345 169 117 182.655 117 199.5C117 204.416 115.835 209.059 113.769 213.172L178.145 272.672C177.777 268.646 177.579 250.488 178.5 198C179.7 129.6 258.333 76.1667 297.5 58ZM86.5 188C80.1487 188 75 193.149 75 199.5C75 205.851 80.1487 211 86.5 211C92.8513 211 98 205.851 98 199.5C98 193.149 92.8513 188 86.5 188Z" fill="#17552A"></path>
<path fill-rule="evenodd" clip-rule="evenodd" d="M354.5 185C371.345 185 385 198.655 385 215.5C385 228.842 376.433 240.181 364.5 244.32V268.5C364.5 279.093 315.303 328.387 286.703 355.557C283.701 358.409 282 362.348 282 366.489V381L261.768 392C262.601 388.833 261.5 366 261.5 366C264.5 338.5 295 314.5 319 297C338.2 283 343.333 267.167 343.5 261V243.954C332.092 239.541 324 228.466 324 215.5C324 198.655 337.655 185 354.5 185ZM354.5 204C348.149 204 343 209.149 343 215.5C343 221.851 348.149 227 354.5 227C360.851 227 366 221.851 366 215.5C366 209.149 360.851 204 354.5 204Z" fill="#17552A"></path>
<path fill-rule="evenodd" clip-rule="evenodd" d="M271.5 220C288.344 220 302 233.655 302 250.5C302 267.345 288.344 281 271.5 281C269.82 281 268.172 280.861 266.566 280.6C266.229 280.731 265.874 280.866 265.5 281C248.7 287 241.166 307.167 239.5 316.5V389L219.5 373.5C219.666 361.167 219.9 332 219.5 314C219.1 296 238.333 277.167 248 270C248.017 270.002 248.035 270.003 248.052 270.005C243.649 264.718 241 257.918 241 250.5C241 233.655 254.655 220 271.5 220ZM271.5 239C265.148 239 260 244.149 260 250.5C260 256.851 265.148 262 271.5 262C277.851 262 283 256.851 283 250.5C283 244.149 277.851 239 271.5 239Z" fill="#17552A"></path>
</svg></svg></g></g><defs><clipPath id="SvgjsClipPath1078"><rect width="1000" height="1000" x="0" y="0" rx="200" ry="200"></rect></clipPath></defs></svg>